PathFileType	4	(X/Y/Z)	G:\マイドライブ\biomec\experimentalData\240725\SJ2.trc
DataRate	CameraRate	NumFrames	NumMarkers	Units	OrigDataRate	OrigDataStartFrame	OrigNumFrames
200.00	200.00	      4	52	mm	200.00	1389	      1851
Frame#	Time	handR			wrRI			wrRO			elbRI			elbRO			shRF			shRU			shRB			handL			wrLI			wrLO			elbLI			elbLO			shLF			shLU			shLB			toeR			baRI			baRO			heelR			anRI			anRO			knRI			knRO			troR			toeL			baLI			baLO			heelL			anLI			anLO			knLI			knLO			troL			head			earR			earL			clav			c7			ribR			ribL			xiph			ASISR			ASISL			PSISR			PSISL			t8			t11			L1			L3			LS			COX			
		X1	Y1	Z1	X2	Y2	Z2	X3	Y3	Z3	X4	Y4	Z4	X5	Y5	Z5	X6	Y6	Z6	X7	Y7	Z7	X8	Y8	Z8	X9	Y9	Z9	X10	Y10	Z10	X11	Y11	Z11	X12	Y12	Z12	X13	Y13	Z13	X14	Y14	Z14	X15	Y15	Z15	X16	Y16	Z16	X17	Y17	Z17	X18	Y18	Z18	X19	Y19	Z19	X20	Y20	Z20	X21	Y21	Z21	X22	Y22	Z22	X23	Y23	Z23	X24	Y24	Z24	X25	Y25	Z25	X26	Y26	Z26	X27	Y27	Z27	X28	Y28	Z28	X29	Y29	Z29	X30	Y30	Z30	X31	Y31	Z31	X32	Y32	Z32	X33	Y33	Z33	X34	Y34	Z34	X35	Y35	Z35	X36	Y36	Z36	X37	Y37	Z37	X38	Y38	Z38	X39	Y39	Z39	X40	Y40	Z40	X41	Y41	Z41	X42	Y42	Z42	X43	Y43	Z43	X44	Y44	Z44	X45	Y45	Z45	X46	Y46	Z46	X47	Y47	Z47	X48	Y48	Z48	X49	Y49	Z49	X50	Y50	Z50	X51	Y51	Z51	X52	Y52	Z52	

1389	6.940	602.98938	804.93353	1042.61890	567.87543	743.00928	1013.67578	519.45923	786.20050	1046.83533	408.74551	650.57794	1180.43481	470.58569	599.17163	1192.37659	600.19324	788.36353	1402.46106	491.10928	773.41962	1400.09753	544.71509	764.02661	1433.69202	639.65302	1093.47400	1051.69421	614.42426	1164.33203	1021.82758	562.82983	1126.37903	1065.66211	492.17416	1294.70459	1183.46387	566.26892	1332.83081	1188.54761	642.25769	1108.71094	1395.79236	596.55524	1149.40930	1426.73657	531.48187	1142.06604	1384.45557	688.42719	720.10406	47.59985	615.82587	782.85663	35.24816	570.15094	664.85059	39.86893	409.49835	788.98047	40.12306	501.56152	809.08795	110.37960	463.76813	721.42188	103.52627	539.40802	849.72375	465.01193	527.69800	745.28937	479.46732	540.44324	782.42181	874.09595	682.15363	1251.93787	61.00874	597.83374	1235.22290	69.47443	619.85229	1344.11316	96.78391	424.23813	1353.58484	132.83435	509.94196	1251.79993	178.08150	521.39441	1347.72278	186.61157	630.11407	1094.64856	476.72958	677.56488	1188.90308	506.44864	612.28271	1123.84558	879.85327	625.22943	928.32269	1706.89771	651.58148	856.82147	1535.59888	688.28021	1009.36493	1548.66931	646.32220	947.78229	1386.39954	535.68787	966.73401	1475.76123	605.82874	842.89160	1091.81091	635.46295	1058.06812	1093.02283	671.84167	940.96075	1229.58789	619.11084	834.64392	961.65210	650.95770	1052.93579	980.76514	457.32849	912.20679	997.02020	480.00586	1031.08740	1003.16870	456.60284	974.05414	1263.85852	467.38553	968.67902	1137.29211	474.78748	969.98962	1079.93030	471.93411	967.96375	1031.31213	458.29083	974.39673	992.61359	435.64771	984.64044	886.53998	
1390	6.945	602.10284	807.22638	1042.67627	566.65143	745.35553	1013.76727	518.64343	789.15381	1046.71680	406.48163	654.70978	1180.59302	467.87314	602.74365	1192.38989	599.32867	791.14996	1402.46887	490.06137	777.03259	1400.11658	543.30878	767.30627	1433.66748	640.81714	1095.55396	1051.39978	616.07794	1166.55554	1021.36536	564.48334	1129.04126	1065.08289	495.15631	1297.88342	1182.46802	569.38684	1335.49292	1187.80042	643.61682	1111.17358	1395.22437	597.83051	1152.28149	1426.22095	532.93390	1145.34521	1383.82568	688.49585	720.07532	47.45969	615.88849	782.89349	35.18231	570.18195	664.86908	39.92944	409.53540	789.02142	40.17202	501.65158	809.27911	110.23728	463.98242	721.62585	103.66790	540.73126	850.71417	464.68237	529.34845	746.35065	479.39725	540.56879	784.68512	874.15070	682.06128	1258.77991	60.47716	598.05835	1243.11206	69.52125	621.47119	1351.06177	97.70220	426.22250	1362.77478	135.08766	511.16174	1259.51770	179.06638	523.67041	1355.51440	188.10933	630.68475	1098.86011	476.59940	679.07324	1192.49658	506.80573	613.67194	1125.95740	879.71667	625.22150	931.02618	1706.89893	650.94812	859.33185	1535.23328	687.90393	1012.64893	1548.11353	646.50177	950.27008	1386.08240	535.89771	969.91870	1475.39990	605.53320	845.21204	1091.79956	636.48389	1060.14331	1092.54980	672.01630	943.16046	1229.29834	619.15088	836.92194	961.53522	652.31287	1055.10962	980.31281	457.49191	915.15808	996.75751	480.83301	1033.86792	1002.84442	456.90479	977.72467	1263.44788	467.67084	971.93927	1136.86047	476.38553	972.61346	1078.38538	472.20966	971.01648	1031.02844	458.99930	977.19244	992.25964	436.25995	987.37225	886.25000	
1391	6.950	601.43915	809.33936	1042.84460	565.29968	747.75647	1013.86084	517.77069	792.08496	1046.72485	404.04877	659.23492	1180.79077	464.78540	606.75220	1192.87964	598.34924	793.83289	1402.44763	488.91568	780.62219	1399.96252	542.21606	770.56720	1433.65271	642.67511	1097.61218	1050.93799	616.38464	1168.38953	1020.08655	566.02643	1131.77686	1064.58728	498.25735	1301.18250	1181.59949	573.56232	1338.13635	1186.80627	644.63605	1113.47485	1394.91956	599.22949	1155.18909	1425.63074	534.42804	1148.59155	1383.28308	688.56952	720.07513	47.33694	615.95636	782.91888	35.09826	570.20746	664.88220	40.00143	409.55847	789.00397	40.22139	501.80417	809.48016	110.13519	464.25247	721.91113	103.85777	542.22272	852.05615	464.30310	530.58612	747.46613	479.25180	540.60406	786.81671	874.17554	682.36932	1264.94836	60.47256	598.24591	1250.37854	70.12729	623.05109	1357.91724	98.48300	428.29642	1371.62158	137.61749	512.36859	1267.18054	180.21019	526.17169	1362.55566	189.65575	631.21173	1103.45789	476.34351	680.48083	1196.47046	507.21622	615.08051	1128.00854	879.50458	625.24152	934.06097	1706.57019	650.23834	861.87439	1535.01733	688.55975	1014.85272	1547.56201	646.54346	952.80865	1385.82214	536.04510	973.34497	1475.04041	605.27325	847.55701	1091.76550	637.46558	1062.41309	1092.13550	672.24915	945.32281	1229.09534	619.16437	839.17407	961.41486	653.71393	1057.14746	979.95685	457.85559	918.53003	997.06689	482.04269	1036.81848	1002.45959	457.17847	981.22266	1262.94885	468.18375	975.24139	1136.40234	476.90335	975.69104	1077.87659	473.06720	973.91644	1030.58179	459.72952	980.22369	991.93823	437.19559	990.07056	885.83783	
1392	6.955	600.64252	811.90540	1042.90344	563.98315	750.32672	1013.88245	516.92493	795.25775	1046.75000	402.89633	663.74780	1180.89270	461.91925	610.44794	1192.96289	597.19672	796.73456	1402.29688	487.67133	784.51318	1399.71790	540.91809	773.98053	1433.50415	643.96710	1099.49438	1050.64587	619.71198	1170.98730	1019.92786	567.67914	1134.40820	1063.89709	501.27527	1304.51416	1180.76379	576.62067	1340.89880	1185.97241	646.13538	1116.33154	1394.71570	600.65033	1158.01978	1425.15454	536.01538	1151.91772	1382.70703	688.63910	720.07074	47.16328	616.02631	782.93433	35.02135	570.25488	664.90277	40.06617	409.60474	789.07404	40.27345	501.97324	809.86066	110.03989	464.08099	721.86804	104.32686	543.73700	853.26392	463.84909	532.29736	748.70441	479.21683	540.47791	789.18512	874.02112	682.78156	1270.71204	60.38582	598.49872	1256.82788	71.03563	624.66376	1364.50732	99.26695	430.37903	1380.22864	139.88704	513.55060	1274.54626	181.32875	528.39667	1369.80359	191.22441	631.41534	1107.87256	476.26065	681.73938	1200.37610	507.47726	616.59479	1130.09619	879.29919	625.94818	937.29529	1705.96912	649.76434	864.64319	1534.84155	689.33600	1017.19244	1547.20386	646.70734	955.38428	1385.48547	536.34851	976.81384	1474.73181	605.01434	849.98547	1091.76355	639.70557	1064.72266	1091.15002	672.37964	947.70508	1228.92212	618.98029	841.23438	961.32806	654.76593	1058.97974	979.64630	458.08176	921.49170	996.71960	482.94522	1039.72437	1001.87592	457.51465	984.75848	1262.64612	468.67297	978.68182	1136.02686	477.55341	978.84308	1077.42285	473.37643	977.17126	1030.28125	459.67511	983.87610	991.70331	437.87311	992.85010	885.35748	
